# xmcd
#
# Track frame offsets:
#	150
#	22730
#	35873
#	52021
#	69140
#	82071
#	95739
#	109177
#	120905
#	132865
#	146460
#	167498
#	179749
#	191650
#	203463
#
# Disc length: 2889 seconds
# Revision: 0
# Processed by: cddbd v1.5.2PL0 Copyright (c) Steve Scherf et al.
# Submitted via: dBpowerAMP V12.0
#
DISCID=cc0b470f
DTITLE=Mariachi "Arriba Juárez" - Inmortal Mariachi
DYEAR=2000
DGENRE=Folklore
TTITLE0=Guadalajara
TTITLE1=Volver, volver
TTITLE2=¡Ay Jalisco, no te rajes!
TTITLE3=Allá en el rancho grande
TTITLE4=El caballo blanco
TTITLE5=La negra
TTITLE6=Las mañanitas
TTITLE7=En tu día
TTITLE8=Me gustas mucho
TTITLE9=La farsante
TTITLE10=Cucurrucucú paloma
TTITLE11=La charreada
TTITLE12=Paloma sin nido
TTITLE13=La chapucera
TTITLE14=El caporal de Chihuahua
EXTD=
EXTT0=
EXTT1=
EXTT2=
EXTT3=
EXTT4=
EXTT5=
EXTT6=
EXTT7=
EXTT8=
EXTT9=
EXTT10=
EXTT11=
EXTT12=
EXTT13=
EXTT14=
PLAYORDER=
